<svg width="167" height="226" viewBox="0 0 167 226" fill="none" xmlns="http://www.w3.org/2000/svg">
<ellipse cx="83.5" cy="201" rx="83.5" ry="25" fill="black"/>
<path d="M111.073 194.182C106.094 195.8 101.154 196.74 96 197.422C100.163 202.353 107.729 204.597 113.728 204.984C115.622 205.028 115.622 205.028 116.595 204.325C117.236 203.269 117.378 202.429 117.483 201.179C117.995 201.288 118.508 201.398 119.02 201.508C119.497 201.609 119.497 201.609 119.984 201.713C120.826 201.903 121.653 202.124 122.485 202.353C124.639 202.871 126.863 203.077 128.961 202.259C129.61 201.554 129.61 201.554 130 200.498C129.942 198.895 129.259 198.107 128.224 197.047C127.404 196.431 126.548 195.959 125.647 195.497C125.405 195.37 125.163 195.243 124.914 195.113C119.868 192.55 116.344 192.417 111.073 194.182Z" fill="white"/>
<path d="M59.3707 194.182C64.2031 195.8 68.9973 196.74 74 197.422C69.9593 202.353 62.616 204.597 56.793 204.984C54.9555 205.028 54.9555 205.028 54.0108 204.325C53.3886 203.269 53.2508 202.429 53.149 201.179C52.6515 201.288 52.1541 201.398 51.6567 201.508C51.1937 201.609 51.1937 201.609 50.7213 201.713C49.9046 201.903 49.1019 202.124 48.2936 202.353C46.2036 202.871 44.0444 203.077 42.0089 202.259C41.3783 201.554 41.3783 201.554 41 200.498C41.0563 198.895 41.7189 198.107 42.7236 197.047C43.5192 196.431 44.3509 195.959 45.2248 195.497C45.4598 195.37 45.6948 195.243 45.9369 195.113C50.8335 192.55 54.2544 192.417 59.3707 194.182Z" fill="white"/>
<path d="M144.33 126.701C155.028 140.954 157.634 154.119 150.967 159.143C144.3 164.167 130.884 159.147 120.187 144.895C109.489 130.642 115.142 125.698 121.809 120.675C128.476 115.651 133.633 112.449 144.33 126.701Z" fill="black"/>
<path d="M48.0647 144.945C37.3701 159.222 25.4763 165.405 18.8162 160.386C12.156 155.368 13.2515 141.048 23.9461 126.77C34.6407 112.493 40.9431 116.557 47.6032 121.575C54.2634 126.594 58.7593 130.667 48.0647 144.945Z" fill="black"/>
<path d="M137.954 165.594C137.954 182.387 114.591 196 85.7705 196C56.9503 196 33.587 182.387 33.587 165.594C33.587 148.802 23.626 120.135 85.7705 110C141.522 118.049 137.954 148.802 137.954 165.594Z" fill="black"/>
<ellipse cx="83.5" cy="85" rx="64.5" ry="55" fill="black"/>
<path d="M50.1744 37.5644C51.3744 36.7644 63.6744 31.5644 69.6744 29.0644C70.6744 28.5644 74.6744 27.4644 82.6744 27.0644C92.6744 26.5644 99.1744 29.0644 109.174 31.5644C119.174 34.0644 121.674 43.5644 120.674 47.0644C119.674 50.5644 116.674 51.0644 110.174 54.0644C103.674 57.0644 100.674 54.0644 93.1744 51.0644C85.6744 48.0644 81.1744 55.5644 76.6744 56.5644C72.1744 57.5644 69.6744 54.0644 64.1744 51.0644C58.6744 48.0644 51.6744 59.0644 45.1744 54.0644C38.6744 49.0644 48.6744 38.5644 50.1744 37.5644Z" fill="white" stroke="white" stroke-linecap="round"/>
<ellipse cx="83" cy="34" rx="12" ry="6" fill="black"/>
<path d="M111.889 59.7501C118.272 60.3369 124.61 62.8868 129.159 66.2478C133.781 69.6621 136.237 73.6479 135.643 77.0627C135.021 80.6364 131.953 84.0363 127.372 86.2964C122.822 88.5413 116.944 89.5676 111.03 88.5116C105.083 87.4493 100.901 84.9858 98.3748 81.9204C95.8547 78.8622 94.9276 75.1431 95.5757 71.4201C96.2582 67.5 97.5038 64.3744 99.893 62.3366C102.264 60.314 105.954 59.2044 111.889 59.7501Z" stroke="white" stroke-width="2"/>
<path d="M53.9822 59.7979C46.99 60.5575 40.7001 63.1162 36.3605 66.4457C31.9793 69.8071 29.8005 73.7616 30.4213 77.3282C31.063 81.0145 34.1252 84.4645 38.7514 86.7327C43.3524 88.9884 49.3613 89.9943 55.593 88.8815C61.9057 87.7541 66.0582 85.5854 68.4642 82.84C70.8421 80.1267 71.6209 76.7284 70.9479 72.8623C70.2391 68.7912 69.0993 65.2269 66.6652 62.8331C64.2793 60.4869 60.4631 59.0939 53.9822 59.7979Z" stroke="white" stroke-width="2"/>
<path d="M79.3922 90.9352C79.4826 89.6951 80.16 88.5212 81.1823 87.6701C82.2061 86.8178 83.5004 86.3532 84.7242 86.4447C87.3515 86.6413 89.4341 88.682 89.2567 91.1153C89.1649 92.3735 88.5031 93.5814 87.508 94.457C86.5121 95.3332 85.2549 95.8141 84.0473 95.7237C81.4185 95.5268 79.2147 93.3672 79.3922 90.9352Z" stroke="white" stroke-width="2"/>
</svg>
